<?xml version="1.0" encoding="utf-8"?>
<!-- Generator: Adobe Illustrator 27.8.1, SVG Export Plug-In . SVG Version: 6.00 Build 0)  -->
<svg version="1.1" id="Слой_1" xmlns="http://www.w3.org/2000/svg" xmlns:xlink="http://www.w3.org/1999/xlink" x="0px" y="0px"
	 viewBox="0 0 1080 1080" style="enable-background:new 0 0 1080 1080;" xml:space="preserve">
<style type="text/css">
	.st0{fill:url(#SVGID_1_);}
	.st1{fill:#1D88C4;}
	.st2{fill:#FFFFFF;}
	.st3{fill:#33ADE4;}
	.st4{fill:none;stroke:#FFFFFF;stroke-width:29;stroke-linecap:round;stroke-miterlimit:10;}
	.st5{fill:#F39123;}
	.st6{fill:#8BD2F6;}
	.st7{fill:none;stroke:#FFFFFF;stroke-width:11;stroke-linecap:round;stroke-miterlimit:10;}
	.st8{fill:none;stroke:#8BD2F6;stroke-width:13;stroke-miterlimit:10;}
</style>
<g>
	<linearGradient id="SVGID_1_" gradientUnits="userSpaceOnUse" x1="109.6993" y1="152.7703" x2="907.7028" y2="870.8854">
		<stop  offset="0" style="stop-color:#3BB8EB"/>
		<stop  offset="1" style="stop-color:#2888CA"/>
	</linearGradient>
	<path class="st0" d="M1076.77,238.05v603.88c0,129.7-105.13,234.84-234.83,234.84H238.07c-129.7,0-234.84-105.14-234.84-234.84
		V238.05c0-129.7,105.14-234.83,234.84-234.83h603.88C971.64,3.23,1076.77,108.36,1076.77,238.05z"/>
	<path class="st1" d="M1076.77,487.85v354.09c0,129.7-105.13,234.84-234.83,234.84H505.1L202.85,774.53l275.28-275.28l420.24,420.24
		l29.74-29.74L515.4,477.03l275.28-275.28L1076.77,487.85z"/>
	<path class="st2" d="M399.27,365.9l195.28-195.28c45.53-45.53,119.35-45.53,164.88,0l64.89,64.89
		c45.53,45.53,45.53,119.35,0,164.88L629.04,595.67L399.27,365.9z"/>
	<path class="st3" d="M605.17,260.05l-82.06,82.06c-5.62,5.62-5.62,14.74,0,20.36l8.01,8.01c5.62,5.62,14.74,5.62,20.36,0
		l82.06-82.06c5.62-5.62,5.62-14.74,0-20.36l-8.01-8.01C619.91,254.43,610.79,254.43,605.17,260.05z"/>
	<path class="st2" d="M603.75,620.96L408.47,816.24c-45.53,45.53-119.35,45.53-164.88,0l-64.89-64.89
		c-45.53-45.53-45.53-119.35,0-164.88l195.28-195.28L603.75,620.96z"/>
	<circle class="st1" cx="705.3" cy="687.97" r="307.03"/>
	<path class="st4" d="M906.63,616.4c8.03,18.06,17.82,46.78,17.82,85.22c0,116.15-94.16,210.3-210.3,210.3s-210.3-94.16-210.3-210.3
		s94.16-210.3,210.3-210.3c52.41,0,93.45,13.77,130.28,45.49"/>
	<g>
		<path class="st5" d="M212.45,208.17l64.69-64.69c35.44-35.44,92.89-35.44,128.33,0l2.14,2.14c35.44,35.44,35.44,92.89,0,128.33
			l-62.69,62.69"/>
		<path class="st6" d="M345.06,336.5l-64.69,64.69c-35.44,35.44-92.89,35.44-128.33,0l-2.14-2.14c-35.44-35.44-35.44-92.89,0-128.33
			l62.69-62.69"/>
	</g>
	<path class="st2" d="M829.71,709.71c0,10.9-8.84,19.73-19.73,19.73h-97.66c-10.54,0-19.06-8.53-19.06-19.06V577.27
		c0-10.9,8.84-19.73,19.73-19.73c5.45,0,10.38,2.2,13.95,5.78c3.58,3.57,5.78,8.5,5.78,13.95v112.71h77.26
		c5.45,0,10.38,2.2,13.95,5.78C827.51,699.33,829.71,704.26,829.71,709.71z"/>
	<g>
		<path class="st7" d="M384.73,161.99c-17.79-19.51-57.71-23.59-77.22-5.8l-50,48.15"/>
		<path class="st8" d="M282.04,284.95"/>
		<path class="st7" d="M173.01,384.29c17.84,19.46,57.77,23.45,77.23,5.62l49.89-48.27"/>
	</g>
</g>
</svg>
